<svg xmlns="http://www.w3.org/2000/svg" viewBox="0 0 200 200" role="img" aria-label="入船小学校 校章">
  <!-- main dove body: a flowing curve resembling a dove turning back -->
  <path fill="#2B8AC9"
    d="M30 96
       C30 60, 60 30, 102 30
       C148 30, 176 60, 176 102
       C176 144, 144 172, 108 172
       C86 172, 72 162, 60 148
       C50 136, 44 122, 40 108
       L58 110
       C54 104, 50 96, 48 88
       C44 92, 38 94, 30 96 Z"/>
  <!-- beak -->
  <path fill="#2B8AC9" d="M30 96 L8 100 L32 106 Z"/>
  <!-- eye -->
  <circle cx="44" cy="86" r="3.2" fill="#fff"/>
  <!-- light blue droplet / wing-tip below -->
  <path fill="#7DD3F7"
    d="M58 162
       C50 172, 36 176, 24 168
       C16 162, 22 152, 32 150
       C44 148, 54 154, 58 162 Z"/>
  <!-- white circle with 小 -->
  <circle cx="124" cy="98" r="32" fill="#ffffff"/>
  <text x="124" y="116" text-anchor="middle"
    font-family="'Noto Sans JP','Yu Gothic','Hiragino Sans',sans-serif"
    font-weight="900" font-size="52" fill="#7CC242">小</text>
</svg>
